<svg width="65" height="65" viewBox="0 0 65 65" fill="none" xmlns="http://www.w3.org/2000/svg">
<path d="M51.7968 36.5623C53.4965 36.5613 55.1772 36.2048 56.7309 35.5157C58.2847 34.8265 59.6771 33.8201 60.8187 32.5608C61.9603 31.3016 62.8259 29.8175 63.36 28.2039C63.894 26.5903 64.0846 24.8828 63.9195 23.1912C63.7544 21.4995 63.2373 19.8611 62.4014 18.3812C61.5655 16.9012 60.4293 15.6125 59.0658 14.5977C57.7023 13.583 56.1416 12.8647 54.4839 12.4889C52.8263 12.1131 51.1084 12.0883 49.4406 12.4158C47.9987 8.86935 45.4802 5.86481 42.24 3.82576C38.9998 1.78671 35.2014 0.815995 31.3801 1.05045C27.5589 1.2849 23.9077 2.7127 20.9411 5.13257C17.9744 7.55244 15.8421 10.8423 14.8446 14.5385C13.31 14.1631 11.7132 14.1175 10.1597 14.4046C8.6062 14.6918 7.13124 15.3051 5.8322 16.2042C4.53316 17.1033 3.43958 18.2677 2.62365 19.6205C1.80771 20.9733 1.28797 22.4838 1.09874 24.0523C0.909512 25.6208 1.05509 27.2115 1.52587 28.7196C1.99664 30.2276 2.78191 31.6187 3.82984 32.801C4.87777 33.9832 6.16453 34.9298 7.60519 35.5781C9.04585 36.2265 10.6076 36.5619 12.1875 36.5623H17.2656V41.1326L9.54684 46.9217C9.42077 47.0164 9.31844 47.1391 9.24794 47.2801C9.17743 47.4211 9.14068 47.5765 9.14059 47.7342V55.9874C8.18321 56.2346 7.34884 56.8225 6.79389 57.6409C6.23894 58.4592 6.00151 59.4519 6.1261 60.4328C6.25069 61.4137 6.72875 62.3155 7.47067 62.9692C8.21259 63.6228 9.16743 63.9834 10.1562 63.9834C11.145 63.9834 12.0998 63.6228 12.8418 62.9692C13.5837 62.3155 14.0617 61.4137 14.1863 60.4328C14.3109 59.4519 14.0735 58.4592 13.5185 57.6409C12.9636 56.8225 12.1292 56.2346 11.1718 55.9874V48.242L18.8906 42.453C19.0167 42.3583 19.119 42.2356 19.1895 42.0946C19.26 41.9536 19.2968 41.7981 19.2968 41.6405V36.5623H24.375V41.3332L20.4826 47.1705C20.3719 47.3377 20.3128 47.5337 20.3125 47.7342V55.9874C19.3551 56.2346 18.5207 56.8225 17.9658 57.6409C17.4108 58.4592 17.1734 59.4519 17.298 60.4328C17.4226 61.4137 17.9006 62.3155 18.6425 62.9692C19.3845 63.6228 20.3393 63.9834 21.3281 63.9834C22.3169 63.9834 23.2717 63.6228 24.0136 62.9692C24.7556 62.3155 25.2336 61.4137 25.3582 60.4328C25.4828 59.4519 25.2454 58.4592 24.6904 57.6409C24.1355 56.8225 23.3011 56.2346 22.3437 55.9874V48.0414L26.2361 42.2041C26.3468 42.0369 26.4059 41.8409 26.4062 41.6405V36.5623H31.4843V55.9874C30.527 56.2346 29.6926 56.8225 29.1376 57.6409C28.5827 58.4592 28.3453 59.4519 28.4698 60.4328C28.5944 61.4137 29.0725 62.3155 29.8144 62.9692C30.5563 63.6228 31.5112 63.9834 32.5 63.9834C33.4888 63.9834 34.4436 63.6228 35.1855 62.9692C35.9274 62.3155 36.4055 61.4137 36.5301 60.4328C36.6547 59.4519 36.4172 58.4592 35.8623 57.6409C35.3073 56.8225 34.473 56.2346 33.5156 55.9874V36.5623H38.5937V41.6405C38.594 41.8409 38.6532 42.0369 38.7638 42.2041L42.6562 48.0414V55.9874C41.6988 56.2346 40.8645 56.8225 40.3095 57.6409C39.7546 58.4592 39.5171 59.4519 39.6417 60.4328C39.7663 61.4137 40.2444 62.3155 40.9863 62.9692C41.7282 63.6228 42.6831 63.9834 43.6718 63.9834C44.6606 63.9834 45.6155 63.6228 46.3574 62.9692C47.0993 62.3155 47.5774 61.4137 47.702 60.4328C47.8266 59.4519 47.5891 58.4592 47.0342 57.6409C46.4792 56.8225 45.6449 56.2346 44.6875 55.9874V47.7342C44.6872 47.5337 44.628 47.3377 44.5174 47.1705L40.625 41.3332V36.5623H45.7031V41.6405C45.7032 41.7981 45.7399 41.9536 45.8104 42.0946C45.8809 42.2356 45.9833 42.3583 46.1093 42.453L53.8281 48.242V55.9874C52.8707 56.2346 52.0363 56.8225 51.4814 57.6409C50.9264 58.4592 50.689 59.4519 50.8136 60.4328C50.9382 61.4137 51.4162 62.3155 52.1582 62.9692C52.9001 63.6228 53.8549 63.9834 54.8437 63.9834C55.8325 63.9834 56.7873 63.6228 57.5293 62.9692C58.2712 62.3155 58.7493 61.4137 58.8738 60.4328C58.9984 59.4519 58.761 58.4592 58.206 57.6409C57.6511 56.8225 56.8167 56.2346 55.8593 55.9874V47.7342C55.8593 47.5765 55.8225 47.4211 55.752 47.2801C55.6815 47.1391 55.5792 47.0164 55.4531 46.9217L47.7343 41.1326V36.5623H51.7968ZM12.1875 59.9217C12.1875 60.3234 12.0683 60.7162 11.8451 61.0502C11.6219 61.3842 11.3047 61.6446 10.9335 61.7983C10.5624 61.9521 10.154 61.9923 9.75994 61.9139C9.36592 61.8355 9.00398 61.6421 8.71991 61.358C8.43583 61.0739 8.24237 60.712 8.164 60.318C8.08562 59.924 8.12585 59.5155 8.27959 59.1444C8.43333 58.7732 8.69368 58.456 9.02772 58.2328C9.36175 58.0096 9.75448 57.8905 10.1562 57.8905C10.6947 57.8912 11.211 58.1054 11.5918 58.4862C11.9725 58.867 12.1868 59.3832 12.1875 59.9217ZM23.3593 59.9217C23.3593 60.3234 23.2402 60.7162 23.017 61.0502C22.7938 61.3842 22.4766 61.6446 22.1054 61.7983C21.7343 61.9521 21.3258 61.9923 20.9318 61.9139C20.5378 61.8355 20.1759 61.6421 19.8918 61.358C19.6077 61.0739 19.4142 60.712 19.3359 60.318C19.2575 59.924 19.2977 59.5155 19.4515 59.1444C19.6052 58.7732 19.8656 58.456 20.1996 58.2328C20.5336 58.0096 20.9263 57.8905 21.3281 57.8905C21.8666 57.8912 22.3828 58.1054 22.7636 58.4862C23.1444 58.867 23.3586 59.3832 23.3593 59.9217ZM45.7031 59.9217C45.7031 60.3234 45.584 60.7162 45.3608 61.0502C45.1376 61.3842 44.8203 61.6446 44.4492 61.7983C44.078 61.9521 43.6696 61.9923 43.2756 61.9139C42.8815 61.8355 42.5196 61.6421 42.2355 61.358C41.9515 61.0739 41.758 60.712 41.6796 60.318C41.6012 59.924 41.6415 59.5155 41.7952 59.1444C41.949 58.7732 42.2093 58.456 42.5433 58.2328C42.8774 58.0096 43.2701 57.8905 43.6718 57.8905C44.2103 57.8912 44.7266 58.1054 45.1074 58.4862C45.4882 58.867 45.7024 59.3832 45.7031 59.9217ZM56.875 59.9217C56.875 60.3234 56.7558 60.7162 56.5326 61.0502C56.3094 61.3842 55.9922 61.6446 55.621 61.7983C55.2499 61.9521 54.8415 61.9923 54.4474 61.9139C54.0534 61.8355 53.6915 61.6421 53.4074 61.358C53.1233 61.0739 52.9299 60.712 52.8515 60.318C52.7731 59.924 52.8133 59.5155 52.9671 59.1444C53.1208 58.7732 53.3812 58.456 53.7152 58.2328C54.0493 58.0096 54.442 57.8905 54.8437 57.8905C55.3822 57.8912 55.8985 58.1054 56.2793 58.4862C56.66 58.867 56.8743 59.3832 56.875 59.9217ZM18.2812 23.3592C18.0803 23.3592 17.884 23.2996 17.717 23.188C17.5499 23.0764 17.4198 22.9178 17.3429 22.7322C17.266 22.5467 17.2459 22.3425 17.2851 22.1454C17.3243 21.9484 17.421 21.7675 17.5631 21.6254C17.7051 21.4834 17.8861 21.3867 18.0831 21.3475C18.2801 21.3083 18.4843 21.3284 18.6699 21.4053C18.8555 21.4821 19.0141 21.6123 19.1257 21.7793C19.2373 21.9463 19.2968 22.1427 19.2968 22.3436C19.2965 22.6128 19.1894 22.8709 18.999 23.0613C18.8086 23.2517 18.5505 23.3588 18.2812 23.3592V23.3592ZM25.3906 27.4217C25.1897 27.4217 24.9934 27.3621 24.8263 27.2505C24.6593 27.1389 24.5291 26.9803 24.4523 26.7947C24.3754 26.6092 24.3553 26.405 24.3945 26.2079C24.4337 26.0109 24.5304 25.83 24.6724 25.6879C24.8145 25.5459 24.9954 25.4492 25.1925 25.41C25.3895 25.3708 25.5937 25.3909 25.7793 25.4678C25.9648 25.5446 26.1235 25.6748 26.2351 25.8418C26.3467 26.0088 26.4062 26.2052 26.4062 26.4061C26.4058 26.6753 26.2987 26.9334 26.1083 27.1238C25.918 27.3142 25.6598 27.4213 25.3906 27.4217V27.4217ZM34.5312 59.9217C34.5312 60.3234 34.4121 60.7162 34.1889 61.0502C33.9657 61.3842 33.6485 61.6446 33.2773 61.7983C32.9061 61.9521 32.4977 61.9923 32.1037 61.9139C31.7097 61.8355 31.3477 61.6421 31.0637 61.358C30.7796 61.0739 30.5861 60.712 30.5077 60.318C30.4294 59.924 30.4696 59.5155 30.6233 59.1444C30.7771 58.7732 31.0374 58.456 31.3715 58.2328C31.7055 58.0096 32.0982 57.8905 32.5 57.8905C33.0385 57.8912 33.5547 58.1054 33.9355 58.4862C34.3163 58.867 34.5305 59.3832 34.5312 59.9217ZM32.5 19.2967C32.2991 19.2967 32.1027 19.2371 31.9357 19.1255C31.7687 19.0139 31.6385 18.8553 31.5617 18.6697C31.4848 18.4842 31.4647 18.28 31.5039 18.0829C31.543 17.8859 31.6398 17.705 31.7818 17.5629C31.9238 17.4209 32.1048 17.3242 32.3018 17.285C32.4988 17.2458 32.703 17.2659 32.8886 17.3428C33.0742 17.4196 33.2328 17.5498 33.3444 17.7168C33.456 17.8838 33.5156 18.0802 33.5156 18.2811C33.5152 18.5503 33.4081 18.8084 33.2177 18.9988C33.0273 19.1892 32.7692 19.2963 32.5 19.2967V19.2967ZM39.6093 25.2635C39.4085 25.2635 39.2121 25.2039 39.0451 25.0923C38.8781 24.9807 38.7479 24.8221 38.671 24.6365C38.5942 24.451 38.574 24.2468 38.6132 24.0497C38.6524 23.8527 38.7492 23.6718 38.8912 23.5297C39.0332 23.3877 39.2142 23.291 39.4112 23.2518C39.6082 23.2126 39.8124 23.2327 39.998 23.3096C40.1836 23.3864 40.3422 23.5166 40.4538 23.6836C40.5654 23.8506 40.625 24.047 40.625 24.2479C40.6246 24.5171 40.5175 24.7752 40.3271 24.9656C40.1367 25.156 39.8786 25.2631 39.6093 25.2635V25.2635ZM45.7031 34.5311H40.625V27.1196C41.3026 26.88 41.8737 26.4086 42.2374 25.7886C42.6011 25.1687 42.7339 24.4401 42.6123 23.7317C42.4908 23.0233 42.1227 22.3807 41.5732 21.9174C41.0237 21.4542 40.3281 21.2001 39.6093 21.2001C38.8906 21.2001 38.195 21.4542 37.6455 21.9174C37.0959 22.3807 36.7279 23.0233 36.6064 23.7317C36.4848 24.4401 36.6176 25.1687 36.9813 25.7886C37.345 26.4086 37.9161 26.88 38.5937 27.1196V34.5311H33.5156V21.1528C34.1932 20.9132 34.7644 20.4418 35.128 19.8218C35.4917 19.2019 35.6245 18.4733 35.503 17.7649C35.3814 17.0565 35.0134 16.4139 34.4638 15.9506C33.9143 15.4874 33.2187 15.2333 32.5 15.2333C31.7812 15.2333 31.0856 15.4874 30.5361 15.9506C29.9866 16.4139 29.6185 17.0565 29.497 17.7649C29.3754 18.4733 29.5082 19.2019 29.8719 19.8218C30.2356 20.4418 30.8067 20.9132 31.4843 21.1528V34.5311H26.4062V29.2778C27.0839 29.0382 27.655 28.5668 28.0187 27.9468C28.3823 27.3269 28.5151 26.5983 28.3936 25.8899C28.272 25.1815 27.904 24.5389 27.3545 24.0756C26.8049 23.6124 26.1093 23.3583 25.3906 23.3583C24.6718 23.3583 23.9762 23.6124 23.4267 24.0756C22.8772 24.5389 22.5091 25.1815 22.3876 25.8899C22.2661 26.5983 22.3989 27.3269 22.7625 27.9468C23.1262 28.5668 23.6973 29.0382 24.375 29.2778V34.5311H19.2968V25.2153C19.9745 24.9757 20.5456 24.5043 20.9093 23.8843C21.273 23.2644 21.4058 22.5358 21.2842 21.8274C21.1627 21.119 20.7946 20.4764 20.2451 20.0131C19.6956 19.5499 19 19.2958 18.2812 19.2958C17.5625 19.2958 16.8669 19.5499 16.3173 20.0131C15.7678 20.4764 15.3998 21.119 15.2782 21.8274C15.1567 22.5358 15.2895 23.2644 15.6532 23.8843C16.0168 24.5043 16.588 24.9757 17.2656 25.2153V34.5311H12.1875C10.856 34.5308 9.5407 34.2396 8.33352 33.6779C7.12635 33.1162 6.05646 32.2975 5.19868 31.2792C4.3409 30.2609 3.71595 29.0675 3.36753 27.7824C3.01912 26.4973 2.95565 25.1517 3.18156 23.8395C3.40748 22.5274 3.91732 21.2804 4.67544 20.1859C5.43356 19.0913 6.42165 18.1756 7.5706 17.5028C8.71955 16.83 10.0016 16.4163 11.3271 16.2906C12.6526 16.165 13.9896 16.3304 15.2445 16.7754C15.3815 16.8241 15.5274 16.8429 15.6722 16.8304C15.8171 16.8179 15.9576 16.7744 16.0842 16.7029C16.2109 16.6314 16.3206 16.5336 16.4062 16.416C16.4917 16.2984 16.551 16.1638 16.58 16.0213C18.1174 8.50315 24.813 3.04671 32.5 3.04671C35.872 3.04832 39.1601 4.09775 41.9096 6.04984C44.6591 8.00193 46.734 10.7602 47.8473 13.9431C47.9318 14.1869 48.1061 14.3894 48.3347 14.5092C48.5632 14.629 48.8289 14.6572 49.0775 14.588C50.474 14.2007 51.9372 14.1167 53.3689 14.3418C54.8005 14.5668 56.1675 15.0956 57.3778 15.8927C58.5881 16.6898 59.6139 17.7366 60.3861 18.963C61.1583 20.1893 61.6592 21.5667 61.855 23.0027C62.0508 24.4386 61.937 25.8998 61.5213 27.2881C61.1056 28.6765 60.3976 29.9598 59.4448 31.0518C58.4921 32.1438 57.3166 33.0193 55.9975 33.6194C54.6784 34.2195 53.2461 34.5304 51.7968 34.5311H47.7343V32.1977C48.412 31.9581 48.9831 31.4867 49.3468 30.8667C49.7105 30.2468 49.8433 29.5182 49.7217 28.8098C49.6002 28.1014 49.2321 27.4588 48.6826 26.9955C48.1331 26.5323 47.4375 26.2782 46.7187 26.2782C46 26.2782 45.3044 26.5323 44.7548 26.9955C44.2053 27.4588 43.8373 28.1014 43.7157 28.8098C43.5942 29.5182 43.727 30.2468 44.0907 30.8667C44.4543 31.4867 45.0255 31.9581 45.7031 32.1977V34.5311ZM46.7187 30.3416C46.5178 30.3416 46.3215 30.2821 46.1545 30.1705C45.9875 30.0589 45.8573 29.9002 45.7804 29.7147C45.7035 29.5291 45.6834 29.3249 45.7226 29.1279C45.7618 28.9309 45.8585 28.7499 46.0006 28.6078C46.1426 28.4658 46.3236 28.3691 46.5206 28.3299C46.7176 28.2907 46.9218 28.3108 47.1074 28.3877C47.293 28.4646 47.4516 28.5947 47.5632 28.7618C47.6748 28.9288 47.7343 29.1251 47.7343 29.326C47.734 29.5953 47.6269 29.8534 47.4365 30.0438C47.2461 30.2341 46.988 30.3413 46.7187 30.3416V30.3416Z" fill="#F20303"/>
<path d="M25.9365 6.69181C24.0601 7.6626 22.4246 9.04094 21.15 10.7258C19.8754 12.4107 18.9939 14.3594 18.5702 16.4291C18.5434 16.5598 18.5427 16.6944 18.568 16.8254C18.5933 16.9563 18.6442 17.081 18.7177 17.1923C18.7912 17.3036 18.8859 17.3994 18.9964 17.4741C19.1069 17.5488 19.231 17.601 19.3617 17.6277C19.4923 17.6545 19.627 17.6552 19.7579 17.6299C19.8889 17.6046 20.0136 17.5537 20.1249 17.4802C20.2362 17.4067 20.3319 17.312 20.4066 17.2015C20.4813 17.091 20.5336 16.9669 20.5603 16.8362C20.9241 15.0625 21.6801 13.3927 22.7729 11.949C23.8657 10.5054 25.2676 9.32449 26.8759 8.49289C27.1148 8.36831 27.2944 8.15395 27.3751 7.89698C27.4559 7.64 27.4313 7.36146 27.3068 7.12262C27.1822 6.88378 26.9678 6.70422 26.7109 6.62342C26.4539 6.54263 26.1753 6.56723 25.9365 6.69181Z" fill="#F20303"/>
<path d="M47.7344 21.3281H56.875C57.1444 21.3281 57.4027 21.2211 57.5932 21.0307C57.7836 20.8402 57.8906 20.5819 57.8906 20.3125C57.8906 20.0431 57.7836 19.7848 57.5932 19.5943C57.4027 19.4039 57.1444 19.2969 56.875 19.2969H47.7344C47.465 19.2969 47.2067 19.4039 47.0162 19.5943C46.8258 19.7848 46.7188 20.0431 46.7188 20.3125C46.7188 20.5819 46.8258 20.8402 47.0162 21.0307C47.2067 21.2211 47.465 21.3281 47.7344 21.3281Z" fill="#F20303"/>
<path d="M56.875 22.3438H51.7969C51.5275 22.3438 51.2692 22.4508 51.0787 22.6412C50.8883 22.8317 50.7812 23.09 50.7812 23.3594C50.7812 23.6287 50.8883 23.8871 51.0787 24.0775C51.2692 24.268 51.5275 24.375 51.7969 24.375H56.875C57.1444 24.375 57.4027 24.268 57.5932 24.0775C57.7836 23.8871 57.8906 23.6287 57.8906 23.3594C57.8906 23.09 57.7836 22.8317 57.5932 22.6412C57.4027 22.4508 57.1444 22.3438 56.875 22.3438Z" fill="#F20303"/>
<path d="M13.2031 28.4375H7.10938C6.84001 28.4375 6.58169 28.5445 6.39122 28.735C6.20075 28.9254 6.09375 29.1838 6.09375 29.4531C6.09375 29.7225 6.20075 29.9808 6.39122 30.1713C6.58169 30.3617 6.84001 30.4688 7.10938 30.4688H13.2031C13.4725 30.4688 13.7308 30.3617 13.9213 30.1713C14.1117 29.9808 14.2188 29.7225 14.2188 29.4531C14.2188 29.1838 14.1117 28.9254 13.9213 28.735C13.7308 28.5445 13.4725 28.4375 13.2031 28.4375Z" fill="#F20303"/>
<path d="M7.10938 27.4219H9.14062C9.40999 27.4219 9.66831 27.3149 9.85878 27.1244C10.0492 26.9339 10.1562 26.6756 10.1562 26.4062C10.1562 26.1369 10.0492 25.8786 9.85878 25.6881C9.66831 25.4976 9.40999 25.3906 9.14062 25.3906H7.10938C6.84001 25.3906 6.58169 25.4976 6.39122 25.6881C6.20075 25.8786 6.09375 26.1369 6.09375 26.4062C6.09375 26.6756 6.20075 26.9339 6.39122 27.1244C6.58169 27.3149 6.84001 27.4219 7.10938 27.4219Z" fill="#F20303"/>
</svg>
